<svg id="visual" viewBox="0 0 960 540" width="960" height="540" xmlns="http://www.w3.org/2000/svg" xmlns:xlink="http://www.w3.org/1999/xlink" version="1.1"><rect x="0" y="0" width="960" height="540" fill="#f3f4f6"></rect><path d="M0 363L22.8 358.8C45.7 354.7 91.3 346.3 137 341.2C182.7 336 228.3 334 274 331.3C319.7 328.7 365.3 325.3 411.2 330.2C457 335 503 348 548.8 348.3C594.7 348.7 640.3 336.3 686 335.7C731.7 335 777.3 346 823 345C868.7 344 914.3 331 937.2 324.5L960 318L960 541L937.2 541C914.3 541 868.7 541 823 541C777.3 541 731.7 541 686 541C640.3 541 594.7 541 548.8 541C503 541 457 541 411.2 541C365.3 541 319.7 541 274 541C228.3 541 182.7 541 137 541C91.3 541 45.7 541 22.8 541L0 541Z" fill="#13e0ce"></path><path d="M0 423L22.8 424.2C45.7 425.3 91.3 427.7 137 425.7C182.7 423.7 228.3 417.3 274 412.7C319.7 408 365.3 405 411.2 401.7C457 398.3 503 394.7 548.8 389.5C594.7 384.3 640.3 377.7 686 377.3C731.7 377 777.3 383 823 384.7C868.7 386.3 914.3 383.7 937.2 382.3L960 381L960 541L937.2 541C914.3 541 868.7 541 823 541C777.3 541 731.7 541 686 541C640.3 541 594.7 541 548.8 541C503 541 457 541 411.2 541C365.3 541 319.7 541 274 541C228.3 541 182.7 541 137 541C91.3 541 45.7 541 22.8 541L0 541Z" fill="#12ccbc"></path><path d="M0 399L22.8 398.3C45.7 397.7 91.3 396.3 137 406.3C182.7 416.3 228.3 437.7 274 438.5C319.7 439.3 365.3 419.7 411.2 413C457 406.3 503 412.7 548.8 414.3C594.7 416 640.3 413 686 414C731.7 415 777.3 420 823 418.5C868.7 417 914.3 409 937.2 405L960 401L960 541L937.2 541C914.3 541 868.7 541 823 541C777.3 541 731.7 541 686 541C640.3 541 594.7 541 548.8 541C503 541 457 541 411.2 541C365.3 541 319.7 541 274 541C228.3 541 182.7 541 137 541C91.3 541 45.7 541 22.8 541L0 541Z" fill="#10b9aa"></path><path d="M0 471L22.8 471.2C45.7 471.3 91.3 471.7 137 470.3C182.7 469 228.3 466 274 468.7C319.7 471.3 365.3 479.7 411.2 478.8C457 478 503 468 548.8 463.7C594.7 459.3 640.3 460.7 686 462.7C731.7 464.7 777.3 467.3 823 469.7C868.7 472 914.3 474 937.2 475L960 476L960 541L937.2 541C914.3 541 868.7 541 823 541C777.3 541 731.7 541 686 541C640.3 541 594.7 541 548.8 541C503 541 457 541 411.2 541C365.3 541 319.7 541 274 541C228.3 541 182.7 541 137 541C91.3 541 45.7 541 22.8 541L0 541Z" fill="#0fa699"></path><path d="M0 498L22.8 494.7C45.7 491.3 91.3 484.7 137 485.5C182.7 486.3 228.3 494.7 274 497.8C319.7 501 365.3 499 411.2 498.2C457 497.3 503 497.7 548.8 500.7C594.7 503.7 640.3 509.3 686 511.8C731.7 514.3 777.3 513.7 823 511.2C868.7 508.7 914.3 504.3 937.2 502.2L960 500L960 541L937.2 541C914.3 541 868.7 541 823 541C777.3 541 731.7 541 686 541C640.3 541 594.7 541 548.8 541C503 541 457 541 411.2 541C365.3 541 319.7 541 274 541C228.3 541 182.7 541 137 541C91.3 541 45.7 541 22.8 541L0 541Z" fill="#0d9488"></path></svg>